<svg width="750" height="461" viewBox="0 0 750 461" fill="none" xmlns="http://www.w3.org/2000/svg">
<path d="M366.842 185.649C347.378 144.239 313.804 111.114 272.136 92.2074C230.468 73.3011 183.43 69.8496 139.449 82.4712C95.4681 95.0929 57.4185 122.963 32.1177 161.088C6.81686 199.213 -4.08177 245.101 1.37453 290.531C6.83082 335.961 28.2855 377.963 61.8944 409.013C95.5034 440.062 139.07 458.13 184.789 459.978C230.508 461.827 275.391 447.335 311.397 419.1C347.403 390.864 372.178 350.731 381.284 305.89L313.221 292.069C307.4 320.737 291.56 346.396 268.54 364.448C245.52 382.5 216.825 391.765 187.595 390.583C158.365 389.402 130.511 377.85 109.023 357.999C87.5357 338.148 73.8189 311.294 70.3305 282.249C66.8421 253.204 73.81 223.866 89.9858 199.491C106.162 175.116 130.488 157.298 158.607 149.228C186.726 141.159 216.799 143.365 243.439 155.453C270.079 167.541 291.544 188.719 303.988 215.194L366.842 185.649Z" fill="#FFFF00"/>
<path d="M731.707 110.649C712.243 69.2393 678.669 36.1137 637.001 17.2074C595.333 -1.6989 548.295 -5.15044 504.314 7.47122C460.333 20.0929 422.284 47.9629 396.983 86.0878C371.682 124.213 360.783 170.101 366.24 215.531C371.696 260.961 393.15 302.963 426.759 334.013C460.368 365.062 503.935 383.13 549.654 384.978C595.373 386.827 640.256 372.335 676.262 344.1C712.268 315.864 737.043 275.731 746.149 230.89L678.086 217.069C672.265 245.737 656.425 271.396 633.405 289.448C610.385 307.5 581.69 316.765 552.46 315.583C523.23 314.402 495.376 302.85 473.888 282.999C452.401 263.148 438.684 236.294 435.196 207.249C431.707 178.204 438.675 148.866 454.851 124.491C471.027 100.116 495.353 82.2978 523.472 74.2283C551.591 66.1587 581.664 68.3654 608.304 80.453C634.944 92.5406 656.409 113.719 668.853 140.194L731.707 110.649Z" fill="#FFFF00"/>
</svg>
